<svg width="160" height="187" viewBox="0 0 160 187" fill="none" xmlns="http://www.w3.org/2000/svg">
<path d="M63.368 46.208C67.3787 46.464 71.048 47.0613 74.376 48C77.7893 48.9387 80.6907 50.3467 83.08 52.224C85.5547 54.1013 87.4747 56.576 88.84 59.648C90.2053 62.6347 90.888 66.3893 90.888 70.912C90.888 76.032 89.992 80.2133 88.2 83.456C86.408 86.6987 83.9333 89.2587 80.776 91.136C77.6187 93.0133 73.9067 94.2933 69.64 94.976C65.3733 95.6587 60.7653 96 55.816 96H25.48V5.632H47.624C52.4027 5.632 56.8827 6.016 61.064 6.784C65.3307 7.552 69 8.74666 72.072 10.368C75.2293 11.9893 77.704 14.1227 79.496 16.768C81.288 19.328 82.184 22.4427 82.184 26.112C82.184 29.0133 81.672 31.5733 80.648 33.792C79.7093 36.0107 78.3867 37.9733 76.68 39.68C74.9733 41.3013 72.968 42.6667 70.664 43.776C68.36 44.8853 65.928 45.696 63.368 46.208ZM80.904 70.912C80.904 65.1947 80.0933 60.7147 78.472 57.472C76.936 54.2293 74.9307 51.84 72.456 50.304C70.0667 48.6827 67.3787 47.7013 64.392 47.36C61.4907 47.0187 58.632 46.848 55.816 46.848C52.8293 46.848 49.9707 46.0373 47.24 44.416C44.5947 42.7947 42.3333 40.4907 40.456 37.504C39.2613 35.7973 38.28 33.8773 37.512 31.744C36.744 29.5253 36.104 27.1787 35.592 24.704V94.976H54.792C57.6933 94.976 60.68 94.8053 63.752 94.464C66.824 94.1227 69.64 93.184 72.2 91.648C74.76 90.0267 76.8507 87.6373 78.472 84.48C80.0933 81.2373 80.904 76.7147 80.904 70.912ZM72.2 26.112C72.2 22.4427 71.4747 19.3707 70.024 16.896C68.6587 14.4213 66.824 12.416 64.52 10.88C62.216 9.344 59.5707 8.23466 56.584 7.55199C53.6827 6.86933 50.696 6.52799 47.624 6.52799H35.592V14.976C35.592 19.4133 36.104 23.5093 37.128 27.264C38.152 30.9333 39.6027 34.1333 41.48 36.864C43.272 39.7653 45.3627 41.984 47.752 43.52C50.2267 45.056 52.9147 45.824 55.816 45.824C57.9493 45.824 59.9973 45.4827 61.96 44.8C63.9227 44.032 65.672 42.8373 67.208 41.216C68.744 39.5947 69.9387 37.5467 70.792 35.072C71.7307 32.5973 72.2 29.6107 72.2 26.112Z" fill="white"/>
<path d="M92.704 83.08C96.032 83.848 98.848 85.1707 101.152 87.048C103.456 88.9253 105.461 91.144 107.168 93.704C108.96 96.264 110.496 99.08 111.776 102.152C113.056 105.139 114.336 108.125 115.616 111.112C116.811 113.928 118.005 116.616 119.2 119.176C120.48 121.651 121.845 123.869 123.296 125.832C124.747 127.709 126.325 129.203 128.032 130.312C129.739 131.421 131.659 131.976 133.792 131.976V133C127.989 133 123.253 132.317 119.584 130.952C115.915 129.501 113.013 127.624 110.88 125.32C108.747 123.016 107.168 120.371 106.144 117.384C105.205 114.397 104.437 111.368 103.84 108.296C103.328 105.224 102.816 102.195 102.304 99.208C101.877 96.2213 101.152 93.576 100.128 91.272C99.104 88.968 97.568 87.1333 95.52 85.768C93.5573 84.3173 90.784 83.592 87.2 83.592C80.7147 83.592 75.5093 80.52 71.584 74.376C69.3653 70.792 67.7013 66.3973 66.592 61.192V133H56.48V42.504H79.008C83.7013 42.504 88.1387 42.888 92.32 43.656C96.5013 44.3387 100.128 45.4907 103.2 47.112C106.357 48.7333 108.832 50.824 110.624 53.384C112.416 55.944 113.312 59.0587 113.312 62.728C113.312 65.8853 112.757 68.6587 111.648 71.048C110.539 73.4373 109.045 75.4853 107.168 77.192C105.291 78.8133 103.115 80.136 100.64 81.16C98.1653 82.0987 95.52 82.7387 92.704 83.08ZM103.2 62.728C103.2 59.0587 102.517 56.0293 101.152 53.64C99.7867 51.1653 97.9947 49.2027 95.776 47.752C93.5573 46.216 90.9547 45.1493 87.968 44.552C85.0667 43.8693 82.08 43.528 79.008 43.528H66.592V51.464C66.592 56.1573 67.104 60.3387 68.128 64.008C69.2373 67.6773 70.688 70.92 72.48 73.736C74.272 76.3813 76.4053 78.5573 78.88 80.264C81.44 81.8853 84.2133 82.696 87.2 82.696H88.096C90.144 82.6107 92.064 82.1413 93.856 81.288C95.7333 80.4347 97.3547 79.1973 98.72 77.576C100.085 75.9547 101.152 73.9067 101.92 71.432C102.773 68.9573 103.2 66.056 103.2 62.728Z" fill="white"/>
<path d="M3.008 179V156.6H13.504C16.192 156.6 18.24 157.133 19.648 158.2C21.056 159.245 21.76 160.653 21.76 162.424C21.76 163.619 21.4827 164.643 20.928 165.496C20.3733 166.328 19.6267 166.979 18.688 167.448C17.7707 167.896 16.768 168.12 15.68 168.12L16.256 166.968C17.5147 166.968 18.6453 167.203 19.648 167.672C20.6507 168.12 21.44 168.781 22.016 169.656C22.6133 170.531 22.912 171.619 22.912 172.92C22.912 174.84 22.176 176.333 20.704 177.4C19.232 178.467 17.0453 179 14.144 179H3.008ZM7.168 175.736H13.888C15.4453 175.736 16.64 175.48 17.472 174.968C18.304 174.456 18.72 173.635 18.72 172.504C18.72 171.395 18.304 170.584 17.472 170.072C16.64 169.539 15.4453 169.272 13.888 169.272H6.848V166.04H13.056C14.5067 166.04 15.616 165.784 16.384 165.272C17.1733 164.76 17.568 163.992 17.568 162.968C17.568 161.923 17.1733 161.144 16.384 160.632C15.616 160.12 14.5067 159.864 13.056 159.864H7.168V175.736ZM35.9917 165.912H47.1278V169.336H35.9917V165.912ZM36.3117 175.512H48.9517V179H32.1517V156.6H48.5037V160.088H36.3117V175.512ZM58.3892 179V156.6H67.6052C69.5892 156.6 71.2852 156.92 72.6932 157.56C74.1226 158.2 75.2212 159.117 75.9893 160.312C76.7572 161.507 77.1412 162.925 77.1412 164.568C77.1412 166.211 76.7572 167.629 75.9893 168.824C75.2212 169.997 74.1226 170.904 72.6932 171.544C71.2852 172.163 69.5892 172.472 67.6052 172.472H60.6932L62.5492 170.584V179H58.3892ZM73.0452 179L67.3812 170.872H71.8292L77.5252 179H73.0452ZM62.5492 171.032L60.6932 169.048H67.4132C69.2479 169.048 70.6239 168.653 71.5412 167.864C72.4799 167.075 72.9492 165.976 72.9492 164.568C72.9492 163.139 72.4799 162.04 71.5412 161.272C70.6239 160.504 69.2479 160.12 67.4132 160.12H60.6932L62.5492 158.072V171.032ZM90.4355 165.912H101.572V169.336H90.4355V165.912ZM90.7555 175.512H103.396V179H86.5955V156.6H102.948V160.088H90.7555V175.512ZM116.545 173.72L116.321 168.792L128.065 156.6H132.737L122.977 166.968L120.673 169.496L116.545 173.72ZM112.833 179V156.6H116.993V179H112.833ZM128.449 179L119.873 168.792L122.625 165.752L133.313 179H128.449ZM144.786 165.912H155.922V169.336H144.786V165.912ZM145.106 175.512H157.746V179H140.946V156.6H157.298V160.088H145.106V175.512Z" fill="white"/>
</svg>
