<svg width="118" height="165" viewBox="0 0 118 165" fill="none" xmlns="http://www.w3.org/2000/svg">
<path d="M42.368 46.208C46.3787 46.464 50.048 47.0613 53.376 48C56.7893 48.9387 59.6907 50.3467 62.08 52.224C64.5547 54.1013 66.4747 56.576 67.84 59.648C69.2053 62.6347 69.888 66.3893 69.888 70.912C69.888 76.032 68.992 80.2133 67.2 83.456C65.408 86.6987 62.9333 89.2587 59.776 91.136C56.6187 93.0133 52.9067 94.2933 48.64 94.976C44.3733 95.6587 39.7653 96 34.816 96H4.48V5.632H26.624C31.4027 5.632 35.8827 6.016 40.064 6.784C44.3307 7.552 48 8.74666 51.072 10.368C54.2293 11.9893 56.704 14.1227 58.496 16.768C60.288 19.328 61.184 22.4427 61.184 26.112C61.184 29.0133 60.672 31.5733 59.648 33.792C58.7093 36.0107 57.3867 37.9733 55.68 39.68C53.9733 41.3013 51.968 42.6667 49.664 43.776C47.36 44.8853 44.928 45.696 42.368 46.208ZM59.904 70.912C59.904 65.1947 59.0933 60.7147 57.472 57.472C55.936 54.2293 53.9307 51.84 51.456 50.304C49.0667 48.6827 46.3787 47.7013 43.392 47.36C40.4907 47.0187 37.632 46.848 34.816 46.848C31.8293 46.848 28.9707 46.0373 26.24 44.416C23.5947 42.7947 21.3333 40.4907 19.456 37.504C18.2613 35.7973 17.28 33.8773 16.512 31.744C15.744 29.5253 15.104 27.1787 14.592 24.704V94.976H33.792C36.6933 94.976 39.68 94.8053 42.752 94.464C45.824 94.1227 48.64 93.184 51.2 91.648C53.76 90.0267 55.8507 87.6373 57.472 84.48C59.0933 81.2373 59.904 76.7147 59.904 70.912ZM51.2 26.112C51.2 22.4427 50.4747 19.3707 49.024 16.896C47.6587 14.4213 45.824 12.416 43.52 10.88C41.216 9.344 38.5707 8.23466 35.584 7.55199C32.6827 6.86933 29.696 6.52799 26.624 6.52799H14.592V14.976C14.592 19.4133 15.104 23.5093 16.128 27.264C17.152 30.9333 18.6027 34.1333 20.48 36.864C22.272 39.7653 24.3627 41.984 26.752 43.52C29.2267 45.056 31.9147 45.824 34.816 45.824C36.9493 45.824 38.9973 45.4827 40.96 44.8C42.9227 44.032 44.672 42.8373 46.208 41.216C47.744 39.5947 48.9387 37.5467 49.792 35.072C50.7307 32.5973 51.2 29.6107 51.2 26.112Z" fill="black"/>
<path d="M71.704 83.08C75.032 83.848 77.848 85.1707 80.152 87.048C82.456 88.9253 84.4613 91.144 86.168 93.704C87.96 96.264 89.496 99.08 90.776 102.152C92.056 105.139 93.336 108.125 94.616 111.112C95.8107 113.928 97.0053 116.616 98.2 119.176C99.48 121.651 100.845 123.869 102.296 125.832C103.747 127.709 105.325 129.203 107.032 130.312C108.739 131.421 110.659 131.976 112.792 131.976V133C106.989 133 102.253 132.317 98.584 130.952C94.9147 129.501 92.0133 127.624 89.88 125.32C87.7467 123.016 86.168 120.371 85.144 117.384C84.2053 114.397 83.4373 111.368 82.84 108.296C82.328 105.224 81.816 102.195 81.304 99.208C80.8773 96.2213 80.152 93.576 79.128 91.272C78.104 88.968 76.568 87.1333 74.52 85.768C72.5573 84.3173 69.784 83.592 66.2 83.592C59.7147 83.592 54.5093 80.52 50.584 74.376C48.3653 70.792 46.7013 66.3973 45.592 61.192V133H35.48V42.504H58.008C62.7013 42.504 67.1387 42.888 71.32 43.656C75.5013 44.3387 79.128 45.4907 82.2 47.112C85.3573 48.7333 87.832 50.824 89.624 53.384C91.416 55.944 92.312 59.0587 92.312 62.728C92.312 65.8853 91.7573 68.6587 90.648 71.048C89.5387 73.4373 88.0453 75.4853 86.168 77.192C84.2907 78.8133 82.1147 80.136 79.64 81.16C77.1653 82.0987 74.52 82.7387 71.704 83.08ZM82.2 62.728C82.2 59.0587 81.5173 56.0293 80.152 53.64C78.7867 51.1653 76.9947 49.2027 74.776 47.752C72.5573 46.216 69.9547 45.1493 66.968 44.552C64.0667 43.8693 61.08 43.528 58.008 43.528H45.592V51.464C45.592 56.1573 46.104 60.3387 47.128 64.008C48.2373 67.6773 49.688 70.92 51.48 73.736C53.272 76.3813 55.4053 78.5573 57.88 80.264C60.44 81.8853 63.2133 82.696 66.2 82.696H67.096C69.144 82.6107 71.064 82.1413 72.856 81.288C74.7333 80.4347 76.3547 79.1973 77.72 77.576C79.0853 75.9547 80.152 73.9067 80.92 71.432C81.7733 68.9573 82.2 66.056 82.2 62.728Z" fill="black"/>
</svg>
